<svg width="41" height="40" viewBox="0 0 41 40" fill="none" xmlns="http://www.w3.org/2000/svg">
<path fill-rule="evenodd" clip-rule="evenodd" d="M20.402 27.1751C24.5814 27.1751 27.9695 23.787 27.9695 19.6076C27.9695 15.4282 24.5814 12.0401 20.402 12.0401C16.2226 12.0401 12.8345 15.4282 12.8345 19.6076C12.8345 23.787 16.2226 27.1751 20.402 27.1751ZM17.669 16.2446C19.1672 14.9503 19.9862 13.4434 19.4984 12.8787C19.0106 12.3141 17.4007 12.9056 15.9025 14.1999C14.4044 15.4942 13.5853 17.0012 14.0731 17.5658C14.5609 18.1304 16.1709 17.5389 17.669 16.2446Z" fill="white"/>
<path d="M29.726 12.0269C30.6625 11.2498 32.0707 11.3724 32.6784 12.4268C34.121 14.9294 34.7145 17.8835 34.3413 20.8767C33.8737 24.6274 31.9266 28.1321 28.9283 30.6199C25.93 33.1077 22.1262 34.3746 18.3535 34.1421C15.3429 33.9566 12.549 32.8283 10.3556 30.9486C9.4315 30.1568 9.57084 28.7502 10.5074 27.9731C11.4439 27.196 12.8221 27.3526 13.801 28.0756C15.2478 29.1442 17.0049 29.7838 18.8825 29.8995C21.5233 30.0623 24.186 29.1754 26.2848 27.4339C28.3836 25.6925 29.7466 23.2392 30.0739 20.6137C30.3066 18.747 30.0023 16.902 29.219 15.2829C28.6891 14.1874 28.7894 12.804 29.726 12.0269Z" fill="white"/>
<path d="M23.8866 16.0833C24.4285 15.5818 25.3084 15.8202 25.5228 16.5268L26.8694 20.9634L28.1555 25.2007C28.3837 25.9526 27.6954 26.6618 26.937 26.4563L22.2946 25.1981L17.6522 23.94C16.8938 23.7344 16.6578 22.7747 17.2345 22.2409L20.4841 19.2329L23.8866 16.0833Z" fill="white"/>
</svg>
