<svg width="30" height="30" viewBox="0 0 30 30" fill="none" xmlns="http://www.w3.org/2000/svg">
<g id="icon/av/replay_24px" opacity="0.3">
<path id="icon/av/replay_24px_2" d="M11.0428 10.8683L9.35885 9.08704C9.08724 8.79974 8.60969 8.98522 8.60492 9.37663L8.4664 14.09C8.45943 14.3384 8.64654 14.5363 8.89495 14.5432L13.6022 14.6754C13.9936 14.6801 14.2056 14.2138 13.934 13.9265L12.25 12.1452C14.6314 9.89383 18.5791 10.2967 20.3914 13.2625C21.4615 14.9954 21.3913 17.2744 20.2321 18.9385C18.4055 21.5722 14.8965 21.9274 12.5922 20.1038C12.2578 19.8396 11.7663 19.8569 11.4535 20.1527C11.0704 20.5148 11.0838 21.1429 11.4971 21.4777C14.5426 23.9062 19.173 23.4582 21.6375 20.0159C23.2613 17.7433 23.3488 14.6258 21.8551 12.2656C19.3908 8.39286 14.1968 7.8866 11.0428 10.8683Z" fill="black" fill-opacity="0.54"/>
</g>
</svg>
